<?xml version="1.0" standalone="no"?>
<svg xmlns:xlink="http://www.w3.org/1999/xlink" id="wave" style="transform:rotate(0deg); transition: 0.3s" viewBox="0 0 1440 490" version="1.1" xmlns="http://www.w3.org/2000/svg"><defs><linearGradient id="sw-gradient-0" x1="0" x2="0" y1="1" y2="0"><stop stop-color="rgba(38, 145, 77, 1)" offset="0%"/><stop stop-color="rgba(255, 179, 11, 1)" offset="100%"/></linearGradient></defs><path style="transform:translate(0, 0px); opacity:1" fill="url(#sw-gradient-0)" d="M0,49L240,114.3C480,180,960,310,1440,326.7C1920,343,2400,245,2880,171.5C3360,98,3840,49,4320,73.5C4800,98,5280,196,5760,220.5C6240,245,6720,196,7200,155.2C7680,114,8160,82,8640,89.8C9120,98,9600,147,10080,147C10560,147,11040,98,11520,65.3C12000,33,12480,16,12960,81.7C13440,147,13920,294,14400,326.7C14880,359,15360,278,15840,204.2C16320,131,16800,65,17280,32.7C17760,0,18240,0,18720,24.5C19200,49,19680,98,20160,122.5C20640,147,21120,147,21600,147C22080,147,22560,147,23040,122.5C23520,98,24000,49,24480,40.8C24960,33,25440,65,25920,114.3C26400,163,26880,229,27360,236.8C27840,245,28320,196,28800,196C29280,196,29760,245,30240,228.7C30720,212,31200,131,31680,130.7C32160,131,32640,212,33120,253.2C33600,294,34080,294,34320,294L34560,294L34560,490L34320,490C34080,490,33600,490,33120,490C32640,490,32160,490,31680,490C31200,490,30720,490,30240,490C29760,490,29280,490,28800,490C28320,490,27840,490,27360,490C26880,490,26400,490,25920,490C25440,490,24960,490,24480,490C24000,490,23520,490,23040,490C22560,490,22080,490,21600,490C21120,490,20640,490,20160,490C19680,490,19200,490,18720,490C18240,490,17760,490,17280,490C16800,490,16320,490,15840,490C15360,490,14880,490,14400,490C13920,490,13440,490,12960,490C12480,490,12000,490,11520,490C11040,490,10560,490,10080,490C9600,490,9120,490,8640,490C8160,490,7680,490,7200,490C6720,490,6240,490,5760,490C5280,490,4800,490,4320,490C3840,490,3360,490,2880,490C2400,490,1920,490,1440,490C960,490,480,490,240,490L0,490Z"/></svg>